<svg id="SvgjsSvg1001" width="288" height="288" xmlns="http://www.w3.org/2000/svg" version="1.1" xmlns:xlink="http://www.w3.org/1999/xlink" xmlns:svgjs="http://svgjs.com/svgjs"><defs id="SvgjsDefs1002"></defs><g id="SvgjsG1008"><svg xmlns="http://www.w3.org/2000/svg" enable-background="new 0 0 256 256" viewBox="0 0 256 256" width="288" height="288"><path d="M115.4,68.8c-3.3,0-6.6,1.3-9.1,3.8c-5,5-5,13.2,0,18.2l37.2,37.2l-37.2,37.2c-5,5-5,13.2,0,18.2c5,5,13.2,5,18.2,0l46.3-46.3c2.4-2.4,3.8-5.7,3.8-9.1c0-3.4-1.4-6.7-3.8-9.1l-46.3-46.3C122,70.1,118.7,68.8,115.4,68.8z" fill="#000000" class="svgShape color000000-0 selectable"></path><path d="M128,19.1c60.1,0,108.9,48.9,108.9,108.9c0,60.1-48.9,108.9-108.9,108.9c-60.1,0-108.9-48.9-108.9-108.9C19.1,67.9,67.9,19.1,128,19.1 M128,10C62.8,10,10,62.8,10,128c0,65.2,52.8,118,118,118c65.2,0,118-52.8,118-118C246,62.8,193.2,10,128,10L128,10z" fill="#ffffff" class="svgShape color000000-1 selectable"></path></svg></g></svg>