<svg xmlns="http://www.w3.org/2000/svg" xmlns:xlink="http://www.w3.org/1999/xlink" width="1004" height="424" style="width:100%;height:100%;transform:translate3d(0,0,0);content-visibility:visible" viewBox="0 0 1004 424"><defs><mask id="q" mask-type="alpha"><use xlink:href="#b"/></mask><mask id="r" mask-type="alpha"><use xlink:href="#c"/></mask><mask id="s" mask-type="alpha"><use xlink:href="#d"/></mask><mask id="t" mask-type="alpha"><use xlink:href="#e"/></mask><mask id="u" mask-type="alpha"><use xlink:href="#f"/></mask><mask id="v" mask-type="alpha"><use xlink:href="#g"/></mask><mask id="w" mask-type="alpha"><use xlink:href="#h"/></mask><mask id="x" mask-type="alpha"><use xlink:href="#i"/></mask><mask id="y" mask-type="alpha"><use xlink:href="#j"/></mask><mask id="z" mask-type="alpha"><use xlink:href="#k"/></mask><mask id="A" mask-type="alpha"><use xlink:href="#l"/></mask><mask id="C" mask-type="alpha"><use xlink:href="#m"/></mask><mask id="B" mask-type="alpha"><use xlink:href="#n"/></mask><path id="c" fill="#0c8b5d" d="M44.71 0c0 2.4-1.949 4.349-4.349 4.349h-80.722A4.35 4.35 0 0 1-44.71 0c0-2.4 1.949-4.349 4.349-4.349h80.722c2.4 0 4.349 1.949 4.349 4.349" style="display:block" transform="translate(701.878 199.308)"/><path id="d" fill="#0c8b5d" d="M71.802 0c0 2.4-1.948 4.349-4.349 4.349H-67.453A4.35 4.35 0 0 1-71.803 0c0-2.4 1.95-4.349 4.35-4.349H67.453c2.4 0 4.35 1.949 4.35 4.349" style="display:block" transform="translate(728.97 184.811)"/><path id="e" fill="#0c8b5d" d="M21.33 0c0 2.4-1.95 4.349-4.35 4.349h-33.96A4.35 4.35 0 0 1-21.33 0c0-2.4 1.95-4.349 4.35-4.349h33.96c2.4 0 4.35 1.949 4.35 4.349" style="display:block" transform="translate(678.498 170.313)"/><path id="f" fill="#0c8b5d" d="M44.71 0c0 2.4-1.949 4.349-4.349 4.349h-80.722A4.35 4.35 0 0 1-44.71 0c0-2.4 1.949-4.349 4.349-4.349h80.722c2.4 0 4.349 1.949 4.349 4.349" style="display:block" transform="translate(701.878 150.017)"/><path id="g" fill="#0c8b5d" d="M71.802 0c0 2.4-1.948 4.349-4.349 4.349H-67.453A4.35 4.35 0 0 1-71.803 0c0-2.4 1.95-4.349 4.35-4.349H67.453c2.4 0 4.35 1.949 4.35 4.349" style="display:block" transform="translate(728.97 135.52)"/><path id="h" fill="#0c8b5d" d="M21.33 0c0 2.4-1.95 4.349-4.35 4.349h-33.96A4.35 4.35 0 0 1-21.33 0c0-2.4 1.95-4.349 4.35-4.349h33.96c2.4 0 4.35 1.949 4.35 4.349" style="display:block" transform="translate(678.498 121.022)"/><path id="i" fill="#0c8b5d" d="M17.704-1.424v2.848c0 4.415-3.585 8-8 8H-9.704c-4.415 0-8-3.585-8-8v-2.848c0-4.415 3.585-8 8-8H9.704c4.415 0 8 3.585 8 8" style="display:block" transform="translate(783.07 95.652)"/><path id="j" fill="#0c8b5d" d="M51.199-1.424v2.848c0 4.415-3.585 8-8 8h-86.398c-4.415 0-8-3.585-8-8v-2.848c0-4.415 3.585-8 8-8h86.398c4.415 0 8 3.585 8 8" style="display:block" transform="translate(708.367 95.652)"/><path id="k" fill="#0c8b5d" d="M71.802 0c0 2.4-1.948 4.349-4.349 4.349H-67.453A4.35 4.35 0 0 1-71.803 0c0-2.4 1.95-4.349 4.35-4.349H67.453c2.4 0 4.35 1.949 4.35 4.349" style="display:block" transform="translate(728.97 70.281)"/><path id="l" fill="#0c8b5d" d="M24.677 0c0 2.4-1.95 4.349-4.35 4.349h-40.654A4.35 4.35 0 0 1-24.677 0c0-2.4 1.95-4.349 4.35-4.349h40.654c2.4 0 4.35 1.949 4.35 4.349" style="display:block" transform="translate(681.845 55.784)"/><path id="n" fill="#0c8b5d" d="M79.24 0c0 2.4-1.95 4.349-4.35 4.349H-74.89A4.35 4.35 0 0 1-79.24 0c0-2.4 1.95-4.349 4.35-4.349H74.89c2.4 0 4.35 1.949 4.35 4.349" style="display:block" transform="translate(217.306 71.195)"/><path id="m" fill="#0c8b5d" d="M101.481 0c0 2.4-1.948 4.349-4.349 4.349H-97.132A4.35 4.35 0 0 1-101.482 0c0-2.4 1.95-4.349 4.35-4.349H97.132c2.4 0 4.35 1.949 4.35 4.349" style="display:block" transform="translate(239.549 56.698)"/><filter id="D" width="300%" height="300%" x="-100%" y="-100%"><feGaussianBlur result="filter_result_0" stdDeviation="28.5 28.5"/></filter><filter id="E" width="300%" height="300%" x="-100%" y="-100%"><feGaussianBlur result="filter_result_0" stdDeviation="28.5 28.5"/></filter><g id="a" style="display:block"><path fill="#080909" d="M488.823 229.264a.7.7 0 0 0 .213-.521.7.7 0 0 0-.213-.513.7.7 0 0 0-.515-.21.71.71 0 0 0-.52.21.7.7 0 0 0-.213.513.7.7 0 0 0 .213.521.7.7 0 0 0 .52.213.7.7 0 0 0 .515-.213M485.746 229.264a.7.7 0 0 0 .213-.521.7.7 0 0 0-.213-.513.7.7 0 0 0-.515-.21.71.71 0 0 0-.52.21.7.7 0 0 0-.214.513q0 .308.214.521a.7.7 0 0 0 .52.213.7.7 0 0 0 .515-.213M482.669 229.264a.7.7 0 0 0 .213-.521.7.7 0 0 0-.213-.513.7.7 0 0 0-.515-.21.71.71 0 0 0-.521.21.7.7 0 0 0-.213.513.7.7 0 0 0 .213.521.7.7 0 0 0 .521.213.7.7 0 0 0 .515-.213M476.567 228.183a1.4 1.4 0 0 1-.488-.636 2.6 2.6 0 0 1-.164-.949q0-.531.164-.954a1.53 1.53 0 0 1 .485-.674q.323-.25.803-.25.466 0 .785.238.32.237.484.659.163.42.163.981 0 .565-.163.973a1.3 1.3 0 0 1-.484.625q-.319.215-.785.215-.476 0-.8-.228m2.086 3.187q.567-.224.897-.692.329-.468.329-1.196v-5.62h-1.065v.902h-.079a3 3 0 0 0-.275-.404 1.5 1.5 0 0 0-.501-.398q-.32-.17-.83-.169-.664 0-1.192.337a2.3 2.3 0 0 0-.832.969q-.305.632-.305 1.514t.307 1.486.83.912 1.177.307q.506 0 .82-.156.315-.156.491-.369t.275-.397h.094v1.081q0 .639-.394.939-.393.3-1.028.299-.441 0-.723-.123a1.4 1.4 0 0 1-.449-.3 2 2 0 0 1-.265-.335l-.912.431q.159.333.464.605.304.273.775.436.471.164 1.11.164a3.5 3.5 0 0 0 1.281-.223M470.212 225.374q.168-.308.461-.468.291-.161.659-.161.545 0 .857.336.312.337.312.937v3.384h1.09v-3.518q0-.688-.238-1.152a1.64 1.64 0 0 0-.659-.701 1.97 1.97 0 0 0-.986-.238q-.654 0-1.115.342t-.703 1.085h.114l-.01-1.358h-1.041v5.54h1.09v-3.28q0-.44.169-.748M467.432 222.827a.6.6 0 0 0 .203-.456.6.6 0 0 0-.203-.461.7.7 0 0 0-.486-.188.68.68 0 0 0-.483.188.6.6 0 0 0-.2.461q0 .263.2.453a.67.67 0 0 0 .483.191q.283 0 .486-.188m.054 6.575v-5.54h-1.09v5.54zM461.55 225.374q.168-.308.461-.468t.659-.161q.545 0 .857.336.312.337.312.937v3.384h1.091v-3.518q0-.688-.236-1.152a1.62 1.62 0 0 0-.659-.701 2 2 0 0 0-.988-.238q-.654 0-1.115.342-.462.342-.704 1.085h.144v-3.201h-1.08v7.383h1.09v-3.28q0-.44.168-.748M457.001 227.995q0 .703.417 1.093.416.389 1.169.389.193 0 .391-.028.199-.027.372-.086l-.193-.872a5 5 0 0 1-.238.039q-.14.02-.223.02-.322 0-.463-.156t-.142-.488v-5.362h-1.09zm-.807-4.133v.887h3.002v-.887zM451.06 231.476q.204.037.461.037.446 0 .783-.151t.582-.448q.245-.298.414-.744l2.408-6.308h-1.169l-1.115 3.147q-.184.52-.315 1.043-.131.524-.275 1.038h.337a25 25 0 0 1-.265-1.035 10 10 0 0 0-.305-1.046l-1.095-3.147h-1.179l2.106 5.565-.119.406q-.1.357-.265.533a.67.67 0 0 1-.392.211 1.25 1.25 0 0 1-.508-.04l-.124-.03-.267.887q.1.045.302.082M446.145 225.374q.168-.308.46-.468t.659-.161q.546 0 .858.336.312.337.312.937v3.384h1.09v-3.518q0-.688-.238-1.152a1.64 1.64 0 0 0-.659-.701 1.97 1.97 0 0 0-.986-.238q-.654 0-1.115.342t-.703 1.085h.113l-.009-1.358h-1.041v5.54h1.09v-3.28q0-.44.169-.748M440.377 228.56a.8.8 0 0 1-.369-.268.7.7 0 0 1-.137-.441q0-.287.151-.46a1 1 0 0 1 .407-.268q.255-.094.562-.134l.327-.039q.198-.026.412-.062t.379-.085a.55.55 0 0 0 .225-.106v.708q0 .322-.168.61a1.24 1.24 0 0 1-.486.461 1.6 1.6 0 0 1-.763.173q-.308 0-.54-.089m1.073.835q.324-.131.537-.335.213-.203.322-.416h.055v.758h1.055v-3.676q0-.604-.208-.981a1.57 1.57 0 0 0-.54-.585 2.2 2.2 0 0 0-.709-.288 3.5 3.5 0 0 0-.713-.079q-.486 0-.942.139a2.2 2.2 0 0 0-.807.441 1.9 1.9 0 0 0-.54.798l1.025.267a1.214 1.214 0 0 1 .662-.646 1.6 1.6 0 0 1 .622-.112q.351 0 .587.117a.8.8 0 0 1 .354.329q.119.213.119.525v.03q0 .193-.146.28-.147.087-.453.124l-.798.096q-.392.045-.771.134-.378.09-.689.268t-.49.481q-.181.302-.181.773 0 .544.248.921t.674.573q.426.195.951.195.451 0 .776-.131M433.737 222.019v7.383h1.13v-7.383zM431.239 227.455v-.942h-3.84v.942zm-4.038 1.947 1.392-4.107q.154-.477.355-1.162.201-.687.453-1.648h-.228q.263.951.463 1.63.2.68.37 1.18l1.437 4.107h1.224l-2.676-7.383h-1.388l-2.626 7.383zM422.915 229.402l-2.562-3.389-.753.773 1.967 2.616zm-3.746 0v-7.383h-1.09v7.383zm.907-2.859h.183l2.502-2.681h-1.308l-2.185 2.339h-.184v1.333zM415.792 229.296a1.9 1.9 0 0 0 .803-.61q.29-.388.289-.894 0-.58-.371-.951-.372-.372-1.14-.546l-.892-.198q-.456-.104-.656-.275a.56.56 0 0 1-.201-.448q0-.312.302-.516.303-.203.753-.203.49 0 .749.221.257.22.361.513l.976-.213a1.9 1.9 0 0 0-.379-.724 1.74 1.74 0 0 0-.691-.485q-.426-.174-1.026-.174-.629 0-1.11.206-.48.205-.758.577a1.4 1.4 0 0 0-.277.867q0 .595.376.976.377.382 1.15.555l.932.213q.396.085.587.258a.57.57 0 0 1 .191.441q0 .308-.313.528-.312.22-.837.22-.48 0-.793-.208-.312-.209-.426-.639l-1.026.213q.099.49.399.83t.768.513 1.068.173q.68 0 1.192-.22M410.24 227.455v-.942h-3.841v.942zm-4.039 1.947 1.392-4.107q.154-.477.355-1.162.201-.687.453-1.648h-.228q.263.951.464 1.63.2.68.369 1.18l1.437 4.107h1.224l-2.676-7.383h-1.388l-2.626 7.383z"/></g><g id="b" style="display:block"><path fill="#fff" d="M606.09 16.946c8.685 0 15.737 7.052 15.737 15.737v160.585c0 8.685-7.052 15.737-15.738 15.737H392.78c-8.686 0-15.738-7.052-15.738-15.737V32.683c0-8.685 7.052-15.737 15.738-15.737z"/><path fill-opacity="0" stroke="#ddd" stroke-width=".9836" d="M606.09 16.946c8.685 0 15.737 7.052 15.737 15.737v160.585c0 8.685-7.052 15.737-15.738 15.737H392.78c-8.686 0-15.738-7.052-15.738-15.737V32.683c0-8.685 7.052-15.737 15.738-15.737z"/></g><clipPath id="o"><path d="M0 0h1004v424H0z"/></clipPath></defs><g clip-path="url(#o)"><path fill="#08090a" d="M0 0h1004v424H0z" style="display:block"/><path fill="none" stroke="#17e299" stroke-width="1.5" d="M-11.757 0h-.865" style="display:block" transform="translate(364.757 73.619)"/><g style="display:block"><path fill="#080909" d="M90.745 154.551c8.169 0 14.801 6.633 14.801 14.802v144.556c0 8.17-6.632 14.802-14.801 14.802h-200.622c-8.169 0-14.801-6.633-14.801-14.802V169.353c0-8.17 6.632-14.802 14.801-14.802z"/><path fill="none" stroke="#fff" stroke-opacity=".05" stroke-width=".92509" d="M90.745 154.551c8.169 0 14.801 6.633 14.801 14.802v144.556c0 8.17-6.632 14.802-14.801 14.802h-200.622c-8.169 0-14.801-6.633-14.801-14.802V169.353c0-8.17 6.632-14.802 14.801-14.802z"/></g><path fill="#fff" fill-opacity=".05" d="M44.71 0c0 2.4-1.949 4.349-4.349 4.349h-80.722A4.35 4.35 0 0 1-44.71 0c0-2.4 1.949-4.349 4.349-4.349h80.722c2.4 0 4.349 1.949 4.349 4.349" style="display:block" transform="matrix(-1 0 0 1 50.161 312.471)"/><path fill="#fff" fill-opacity=".05" d="M110.902 0c0 2.4-1.949 4.349-4.349 4.349h-213.106A4.35 4.35 0 0 1-110.902 0c0-2.4 1.949-4.349 4.349-4.349h213.106c2.4 0 4.349 1.949 4.349 4.349" style="display:block" transform="matrix(-1 0 0 1 -16.031 297.974)"/><path fill="#fff" fill-opacity=".05" d="M21.33 0c0 2.4-1.95 4.349-4.35 4.349h-33.96A4.35 4.35 0 0 1-21.33 0c0-2.4 1.95-4.349 4.35-4.349h33.96c2.4 0 4.35 1.949 4.35 4.349" style="display:block" transform="matrix(-1 0 0 1 73.541 283.476)"/><path fill="#fff" fill-opacity=".05" d="M44.71 0c0 2.4-1.949 4.349-4.349 4.349h-80.722A4.35 4.35 0 0 1-44.71 0c0-2.4 1.949-4.349 4.349-4.349h80.722c2.4 0 4.349 1.949 4.349 4.349" style="display:block" transform="matrix(-1 0 0 1 50.161 263.18)"/><path fill="#fff" fill-opacity=".05" d="M110.902 0c0 2.4-1.949 4.349-4.349 4.349h-213.106A4.35 4.35 0 0 1-110.902 0c0-2.4 1.949-4.349 4.349-4.349h213.106c2.4 0 4.349 1.949 4.349 4.349" style="display:block" transform="matrix(-1 0 0 1 -16.031 248.683)"/><path fill="#fff" fill-opacity=".05" d="M21.33 0c0 2.4-1.95 4.349-4.35 4.349h-33.96A4.35 4.35 0 0 1-21.33 0c0-2.4 1.95-4.349 4.35-4.349h33.96c2.4 0 4.35 1.949 4.35 4.349" style="display:block" transform="matrix(-1 0 0 1 73.541 234.185)"/><path fill="#fff" fill-opacity=".05" d="M17.704-1.424v2.848c0 4.415-3.585 8-8 8H-9.704c-4.415 0-8-3.585-8-8v-2.848c0-4.415 3.585-8 8-8H9.704c4.415 0 8 3.585 8 8" style="display:block" transform="matrix(-1 0 0 1 -109.23 208.815)"/><path fill="#fff" fill-opacity=".05" d="M90.299-1.424v2.848c0 4.415-3.585 8-8 8H-82.3c-4.415 0-8-3.585-8-8v-2.848c0-4.415 3.585-8 8-8H82.3c4.415 0 8 3.585 8 8" style="display:block" transform="matrix(-1 0 0 1 4.572 208.815)"/><path fill="#fff" fill-opacity=".05" d="M110.902 0c0 2.4-1.949 4.349-4.349 4.349h-213.106A4.35 4.35 0 0 1-110.902 0c0-2.4 1.949-4.349 4.349-4.349h213.106c2.4 0 4.349 1.949 4.349 4.349" style="display:block" transform="matrix(-1 0 0 1 -16.031 183.444)"/><path fill="#fff" fill-opacity=".05" d="M24.677 0c0 2.4-1.95 4.349-4.35 4.349h-40.654A4.35 4.35 0 0 1-24.677 0c0-2.4 1.95-4.349 4.35-4.349h40.654c2.4 0 4.35 1.949 4.35 4.349" style="display:block" transform="matrix(-1 0 0 1 70.194 168.947)"/><g style="display:block"><path fill="#080909" d="M1112.745 154.551c8.169 0 14.801 6.633 14.801 14.802v144.556c0 8.17-6.632 14.802-14.801 14.802H912.123c-8.169 0-14.801-6.633-14.801-14.802V169.353c0-8.17 6.632-14.802 14.801-14.802z"/><path fill="none" stroke="#fff" stroke-opacity=".05" stroke-width=".92509" d="M1112.745 154.551c8.169 0 14.801 6.633 14.801 14.802v144.556c0 8.17-6.632 14.802-14.801 14.802H912.123c-8.169 0-14.801-6.633-14.801-14.802V169.353c0-8.17 6.632-14.802 14.801-14.802z"/></g><path fill="#fff" fill-opacity=".05" d="M44.71 0c0 2.4-1.949 4.349-4.349 4.349h-80.722A4.35 4.35 0 0 1-44.71 0c0-2.4 1.949-4.349 4.349-4.349h80.722c2.4 0 4.349 1.949 4.349 4.349" style="display:block" transform="matrix(-1 0 0 1 1085.8 312.471)"/><path fill="#fff" fill-opacity=".05" d="M110.902 0c0 2.4-1.949 4.349-4.349 4.349h-213.106A4.35 4.35 0 0 1-110.902 0c0-2.4 1.949-4.349 4.349-4.349h213.106c2.4 0 4.349 1.949 4.349 4.349" style="display:block" transform="matrix(-1 0 0 1 1019.609 297.974)"/><path fill="#fff" fill-opacity=".05" d="M21.33 0c0 2.4-1.95 4.349-4.35 4.349h-33.96A4.35 4.35 0 0 1-21.33 0c0-2.4 1.95-4.349 4.35-4.349h33.96c2.4 0 4.35 1.949 4.35 4.349" style="display:block" transform="matrix(-1 0 0 1 1109.182 283.476)"/><path fill="#fff" fill-opacity=".05" d="M44.71 0c0 2.4-1.949 4.349-4.349 4.349h-80.722A4.35 4.35 0 0 1-44.71 0c0-2.4 1.949-4.349 4.349-4.349h80.722c2.4 0 4.349 1.949 4.349 4.349" style="display:block" transform="matrix(-1 0 0 1 1085.8 263.18)"/><path fill="#fff" fill-opacity=".05" d="M110.902 0c0 2.4-1.949 4.349-4.349 4.349h-213.106A4.35 4.35 0 0 1-110.902 0c0-2.4 1.949-4.349 4.349-4.349h213.106c2.4 0 4.349 1.949 4.349 4.349" style="display:block" transform="matrix(-1 0 0 1 1019.609 248.683)"/><path fill="#fff" fill-opacity=".05" d="M21.33 0c0 2.4-1.95 4.349-4.35 4.349h-33.96A4.35 4.35 0 0 1-21.33 0c0-2.4 1.95-4.349 4.35-4.349h33.96c2.4 0 4.35 1.949 4.35 4.349" style="display:block" transform="matrix(-1 0 0 1 1109.182 234.185)"/><path fill="#fff" fill-opacity=".05" d="M17.704-1.424v2.848c0 4.415-3.585 8-8 8H-9.704c-4.415 0-8-3.585-8-8v-2.848c0-4.415 3.585-8 8-8H9.704c4.415 0 8 3.585 8 8" style="display:block" transform="matrix(-1 0 0 1 926.41 208.815)"/><path fill="#fff" fill-opacity=".05" d="M90.299-1.424v2.848c0 4.415-3.585 8-8 8H-82.3c-4.415 0-8-3.585-8-8v-2.848c0-4.415 3.585-8 8-8H82.3c4.415 0 8 3.585 8 8" style="display:block" transform="matrix(-1 0 0 1 1040.213 208.815)"/><path fill="#fff" fill-opacity=".05" d="M110.902 0c0 2.4-1.949 4.349-4.349 4.349h-213.106A4.35 4.35 0 0 1-110.902 0c0-2.4 1.949-4.349 4.349-4.349h213.106c2.4 0 4.349 1.949 4.349 4.349" style="display:block" transform="matrix(-1 0 0 1 1019.609 183.444)"/><path fill="#fff" fill-opacity=".05" d="M24.677 0c0 2.4-1.95 4.349-4.35 4.349h-40.654A4.35 4.35 0 0 1-24.677 0c0-2.4 1.95-4.349 4.35-4.349h40.654c2.4 0 4.35 1.949 4.35 4.349" style="display:block" transform="matrix(-1 0 0 1 1105.835 168.947)"/><g style="display:block"><path fill="#080909" d="M605.867 275.998c8.71 0 15.78 7.07 15.78 15.78V463.64c0 8.708-7.07 15.78-15.78 15.78H392.973c-8.709 0-15.78-7.072-15.78-15.78V291.777c0-8.709 7.071-15.78 15.78-15.78z"/><path fill="none" stroke="#fff" stroke-opacity=".05" stroke-width=".98623" d="M605.867 275.998c8.71 0 15.78 7.07 15.78 15.78V463.64c0 8.708-7.07 15.78-15.78 15.78H392.973c-8.709 0-15.78-7.072-15.78-15.78V291.777c0-8.709 7.071-15.78 15.78-15.78z"/></g><path fill="#fff" fill-opacity=".03" d="M26.78-15.549V15.55c0 4.415-3.585 8-8 8h-37.56c-4.415 0-8-3.585-8-8V-15.55c0-4.415 3.585-8 8-8h37.56c4.415 0 8 3.585 8 8" style="display:block" transform="translate(583.732 311.146)"/><path fill="#fff" fill-opacity=".03" d="M44.71 0c0 2.4-1.949 4.349-4.349 4.349h-80.722A4.35 4.35 0 0 1-44.71 0c0-2.4 1.949-4.349 4.349-4.349h80.722c2.4 0 4.349 1.949 4.349 4.349" style="display:block" transform="translate(433.418 435.471)"/><path fill="#fff" fill-opacity=".03" d="M78.324 0c0 2.4-1.95 4.349-4.35 4.349H-73.974A4.35 4.35 0 0 1-78.324 0c0-2.4 1.95-4.349 4.35-4.349H73.974c2.4 0 4.349 1.949 4.349 4.349" style="display:block" transform="translate(467.031 420.974)"/><path fill="#fff" fill-opacity=".03" d="M21.33 0c0 2.4-1.95 4.349-4.35 4.349h-33.96A4.35 4.35 0 0 1-21.33 0c0-2.4 1.95-4.349 4.35-4.349h33.96c2.4 0 4.35 1.949 4.35 4.349" style="display:block" transform="translate(410.037 406.476)"/><path fill="#fff" fill-opacity=".03" d="M44.71 0c0 2.4-1.949 4.349-4.349 4.349h-80.722A4.35 4.35 0 0 1-44.71 0c0-2.4 1.949-4.349 4.349-4.349h80.722c2.4 0 4.349 1.949 4.349 4.349" style="display:block" transform="translate(433.418 386.18)"/><path fill="#fff" fill-opacity=".03" d="M78.324 0c0 2.4-1.95 4.349-4.35 4.349H-73.974A4.35 4.35 0 0 1-78.324 0c0-2.4 1.95-4.349 4.35-4.349H73.974c2.4 0 4.349 1.949 4.349 4.349" style="display:block" transform="translate(467.031 371.683)"/><path fill="#fff" fill-opacity=".05" d="M21.33 0c0 2.4-1.95 4.349-4.35 4.349h-33.96A4.35 4.35 0 0 1-21.33 0c0-2.4 1.95-4.349 4.35-4.349h33.96c2.4 0 4.35 1.949 4.35 4.349" style="display:block" transform="translate(410.037 357.185)"/><path fill="#fff" fill-opacity=".03" d="M17.704-1.424v2.848c0 4.415-3.585 8-8 8H-9.704c-4.415 0-8-3.585-8-8v-2.848c0-4.415 3.585-8 8-8H9.704c4.415 0 8 3.585 8 8" style="display:block" transform="translate(527.651 331.815)"/><path fill="#fff" fill-opacity=".03" d="M57.72-1.424v2.848c0 4.415-3.585 8-8 8h-99.44c-4.415 0-8-3.585-8-8v-2.848c0-4.415 3.585-8 8-8h99.44c4.415 0 8 3.585 8 8" style="display:block" transform="translate(446.428 331.815)"/><path fill="#fff" fill-opacity=".03" d="M78.324 0c0 2.4-1.95 4.349-4.35 4.349H-73.974A4.35 4.35 0 0 1-78.324 0c0-2.4 1.95-4.349 4.35-4.349H73.974c2.4 0 4.349 1.949 4.349 4.349" style="display:block" transform="translate(467.031 306.444)"/><path fill="#fff" fill-opacity=".03" d="M24.677 0c0 2.4-1.95 4.349-4.35 4.349h-40.654A4.35 4.35 0 0 1-24.677 0c0-2.4 1.95-4.349 4.35-4.349h40.654c2.4 0 4.35 1.949 4.35 4.349" style="display:block" transform="translate(413.384 291.947)"/><g style="display:block"><path fill="#080909" d="M606.09 15.962c8.685 0 15.737 7.052 15.737 15.738v203.862c0 8.686-7.052 15.738-15.738 15.738H392.78c-8.686 0-15.738-7.052-15.738-15.738V31.7c0-8.686 7.052-15.738 15.738-15.738z"/><path fill="none" stroke="#fff" stroke-opacity=".05" stroke-width=".9836" d="M606.09 15.962c8.685 0 15.737 7.052 15.737 15.738v203.862c0 8.686-7.052 15.738-15.738 15.738H392.78c-8.686 0-15.738-7.052-15.738-15.738V31.7c0-8.686 7.052-15.738 15.738-15.738z"/></g><path fill="#fff" fill-opacity=".03" d="M111.402 0c0 8.554-6.946 15.5-15.5 15.5H-95.902c-8.554 0-15.5-6.946-15.5-15.5s6.946-15.5 15.5-15.5H95.902c8.554 0 15.5 6.946 15.5 15.5" style="display:block" transform="translate(500.109 225.902)"/><g opacity=".5" style="display:block"><path fill="#fff" d="M488.823 229.264a.7.7 0 0 0 .213-.521.7.7 0 0 0-.213-.513.7.7 0 0 0-.515-.21.71.71 0 0 0-.52.21.7.7 0 0 0-.213.513.7.7 0 0 0 .213.521.7.7 0 0 0 .52.213.7.7 0 0 0 .515-.213M485.746 229.264a.7.7 0 0 0 .213-.521.7.7 0 0 0-.213-.513.7.7 0 0 0-.515-.21.71.71 0 0 0-.52.21.7.7 0 0 0-.214.513q0 .308.214.521a.7.7 0 0 0 .52.213.7.7 0 0 0 .515-.213M482.669 229.264a.7.7 0 0 0 .213-.521.7.7 0 0 0-.213-.513.7.7 0 0 0-.515-.21.71.71 0 0 0-.521.21.7.7 0 0 0-.213.513.7.7 0 0 0 .213.521.7.7 0 0 0 .521.213.7.7 0 0 0 .515-.213M476.567 228.183a1.4 1.4 0 0 1-.488-.636 2.6 2.6 0 0 1-.164-.949q0-.531.164-.954a1.53 1.53 0 0 1 .485-.674q.323-.25.803-.25.466 0 .785.238.32.237.484.659.163.42.163.981 0 .565-.163.973a1.3 1.3 0 0 1-.484.625q-.319.215-.785.215-.476 0-.8-.228m2.086 3.187q.567-.224.897-.692.329-.468.329-1.196v-5.62h-1.065v.902h-.079a3 3 0 0 0-.275-.404 1.5 1.5 0 0 0-.501-.398q-.32-.17-.83-.169-.664 0-1.192.337a2.3 2.3 0 0 0-.832.969q-.305.632-.305 1.514t.307 1.486.83.912 1.177.307q.506 0 .82-.156.315-.156.491-.369t.275-.397h.094v1.081q0 .639-.394.939-.393.3-1.028.299-.441 0-.723-.123a1.4 1.4 0 0 1-.449-.3 2 2 0 0 1-.265-.335l-.912.431q.159.333.464.605.304.273.775.436.471.164 1.11.164a3.5 3.5 0 0 0 1.281-.223M470.212 225.374q.168-.308.461-.468.291-.161.659-.161.545 0 .857.336.312.337.312.937v3.384h1.09v-3.518q0-.688-.238-1.152a1.64 1.64 0 0 0-.659-.701 1.97 1.97 0 0 0-.986-.238q-.654 0-1.115.342t-.703 1.085h.114l-.01-1.358h-1.041v5.54h1.09v-3.28q0-.44.169-.748M467.432 222.827a.6.6 0 0 0 .203-.456.6.6 0 0 0-.203-.461.7.7 0 0 0-.486-.188.68.68 0 0 0-.483.188.6.6 0 0 0-.2.461q0 .263.2.453a.67.67 0 0 0 .483.191q.283 0 .486-.188m.054 6.575v-5.54h-1.09v5.54zM461.55 225.374q.168-.308.461-.468t.659-.161q.545 0 .857.336.312.337.312.937v3.384h1.091v-3.518q0-.688-.236-1.152a1.62 1.62 0 0 0-.659-.701 2 2 0 0 0-.988-.238q-.654 0-1.115.342-.462.342-.704 1.085h.144v-3.201h-1.08v7.383h1.09v-3.28q0-.44.168-.748M457.001 227.995q0 .703.417 1.093.416.389 1.169.389.193 0 .391-.028.199-.027.372-.086l-.193-.872a5 5 0 0 1-.238.039q-.14.02-.223.02-.322 0-.463-.156t-.142-.488v-5.362h-1.09zm-.807-4.133v.887h3.002v-.887zM451.06 231.476q.204.037.461.037.446 0 .783-.151t.582-.448q.245-.298.414-.744l2.408-6.308h-1.169l-1.115 3.147q-.184.52-.315 1.043-.131.524-.275 1.038h.337a25 25 0 0 1-.265-1.035 10 10 0 0 0-.305-1.046l-1.095-3.147h-1.179l2.106 5.565-.119.406q-.1.357-.265.533a.67.67 0 0 1-.392.211 1.25 1.25 0 0 1-.508-.04l-.124-.03-.267.887q.1.045.302.082M446.145 225.374q.168-.308.46-.468t.659-.161q.546 0 .858.336.312.337.312.937v3.384h1.09v-3.518q0-.688-.238-1.152a1.64 1.64 0 0 0-.659-.701 1.97 1.97 0 0 0-.986-.238q-.654 0-1.115.342t-.703 1.085h.113l-.009-1.358h-1.041v5.54h1.09v-3.28q0-.44.169-.748M440.377 228.56a.8.8 0 0 1-.369-.268.7.7 0 0 1-.137-.441q0-.287.151-.46a1 1 0 0 1 .407-.268q.255-.094.562-.134l.327-.039q.198-.026.412-.062t.379-.085a.55.55 0 0 0 .225-.106v.708q0 .322-.168.61a1.24 1.24 0 0 1-.486.461 1.6 1.6 0 0 1-.763.173q-.308 0-.54-.089m1.073.835q.324-.131.537-.335.213-.203.322-.416h.055v.758h1.055v-3.676q0-.604-.208-.981a1.57 1.57 0 0 0-.54-.585 2.2 2.2 0 0 0-.709-.288 3.5 3.5 0 0 0-.713-.079q-.486 0-.942.139a2.2 2.2 0 0 0-.807.441 1.9 1.9 0 0 0-.54.798l1.025.267a1.214 1.214 0 0 1 .662-.646 1.6 1.6 0 0 1 .622-.112q.351 0 .587.117a.8.8 0 0 1 .354.329q.119.213.119.525v.03q0 .193-.146.28-.147.087-.453.124l-.798.096q-.392.045-.771.134-.378.09-.689.268t-.49.481q-.181.302-.181.773 0 .544.248.921t.674.573q.426.195.951.195.451 0 .776-.131M433.737 222.019v7.383h1.13v-7.383zM431.239 227.455v-.942h-3.84v.942zm-4.038 1.947 1.392-4.107q.154-.477.355-1.162.201-.687.453-1.648h-.228q.263.951.463 1.63.2.68.37 1.18l1.437 4.107h1.224l-2.676-7.383h-1.388l-2.626 7.383zM422.915 229.402l-2.562-3.389-.753.773 1.967 2.616zm-3.746 0v-7.383h-1.09v7.383zm.907-2.859h.183l2.502-2.681h-1.308l-2.185 2.339h-.184v1.333zM415.792 229.296a1.9 1.9 0 0 0 .803-.61q.29-.388.289-.894 0-.58-.371-.951-.372-.372-1.14-.546l-.892-.198q-.456-.104-.656-.275a.56.56 0 0 1-.201-.448q0-.312.302-.516.303-.203.753-.203.49 0 .749.221.257.22.361.513l.976-.213a1.9 1.9 0 0 0-.379-.724 1.74 1.74 0 0 0-.691-.485q-.426-.174-1.026-.174-.629 0-1.11.206-.48.205-.758.577a1.4 1.4 0 0 0-.277.867q0 .595.376.976.377.382 1.15.555l.932.213q.396.085.587.258a.57.57 0 0 1 .191.441q0 .308-.313.528-.312.22-.837.22-.48 0-.793-.208-.312-.209-.426-.639l-1.026.213q.099.49.399.83t.768.513 1.068.173q.68 0 1.192-.22M410.24 227.455v-.942h-3.841v.942zm-4.039 1.947 1.392-4.107q.154-.477.355-1.162.201-.687.453-1.648h-.228q.263.951.464 1.63.2.68.369 1.18l1.437 4.107h1.224l-2.676-7.383h-1.388l-2.626 7.383z" opacity="1"/></g><g mask="url(#q)" style="display:block"><path fill="#17e299" d="M611.511 266.312v19.492c0 6.623-5.377 12-12 12H400.707c-6.623 0-12-5.377-12-12v-19.492c0-6.623 5.377-12 12-12h198.804c6.623 0 12 5.377 12 12"/></g><g mask="url(#q)" style="display:block"><path fill="#fff" fill-opacity=".05" d="M611.511 177.589v11.545c0 4.415-3.585 8-8 8H501.357c-4.415 0-8-3.585-8-8v-11.545c0-4.415 3.585-8 8-8h102.154c4.415 0 8 3.585 8 8"/></g><g mask="url(#q)" style="display:block"><path fill="#17e299" d="M611.511 128.285v19.492c0 6.623-5.377 12-12 12H400.707c-6.623 0-12-5.377-12-12v-19.492c0-6.623 5.377-12 12-12h198.804c6.623 0 12 5.377 12 12"/></g><g mask="url(#q)" style="display:block"><path fill="#fff" fill-opacity=".05" d="M611.511 81.847v11.545c0 4.415-3.585 8-8 8H501.357c-4.415 0-8-3.585-8-8V81.847c0-4.415 3.585-8 8-8h102.154c4.415 0 8 3.585 8 8"/></g><g mask="url(#q)" style="display:block"><path fill="#17e299" d="M611.511 5.657V25.15c0 6.623-5.377 12-12 12H400.707c-6.623 0-12-5.377-12-12V5.657c0-6.622 5.377-12 12-12h198.804c6.623 0 12 5.378 12 12"/></g><g mask="url(#q)" style="display:block"><path fill="#fff" fill-opacity=".05" d="M611.511-18.031v11.545c0 4.415-3.585 8-8 8H501.357c-4.415 0-8-3.585-8-8v-11.545c0-4.416 3.585-8 8-8h102.154c4.415 0 8 3.584 8 8"/></g><path fill="#17e299" d="M1.812 0a.543.543 0 0 0 .384-.928L.384-2.74a.544.544 0 0 0-.769 0L-2.197-.928a.544.544 0 0 0 .769.769l.884-.884v3.398a.545.545 0 0 0 1.088 0v-3.399l.884.885A.54.54 0 0 0 1.812 0m-7.611 0A5.806 5.806 0 0 1 0-5.799 5.806 5.806 0 0 1 5.799 0 5.806 5.806 0 0 1 0 5.799 5.806 5.806 0 0 1-5.799 0" style="display:block" transform="translate(594.987 225.902)"/><g style="display:block"><path fill="#080909" d="M861.745 236.027c8.169 0 14.801 6.633 14.801 14.801v131.606c0 8.169-6.632 14.801-14.801 14.801H661.123c-8.169 0-14.801-6.632-14.801-14.801V250.828c0-8.168 6.632-14.801 14.801-14.801z"/><path fill="none" stroke="#fff" stroke-opacity=".05" stroke-width=".92509" d="M861.745 236.027c8.169 0 14.801 6.633 14.801 14.801v131.606c0 8.169-6.632 14.801-14.801 14.801H661.123c-8.169 0-14.801-6.632-14.801-14.801V250.828c0-8.168 6.632-14.801 14.801-14.801z"/></g><path fill="#fff" fill-opacity=".05" d="M4.765 0A4.475 4.475 0 0 1 .293 4.472h-.586A4.475 4.475 0 0 1-4.765 0 4.475 4.475 0 0 1-.293-4.472h.586A4.475 4.475 0 0 1 4.765 0" style="display:block" transform="translate(860.747 380.771)"/><path fill="#fff" fill-opacity=".05" d="M4.765-18.038v36.076A4.767 4.767 0 0 1 0 22.803a4.767 4.767 0 0 1-4.765-4.765v-36.076A4.767 4.767 0 0 1 0-22.803a4.767 4.767 0 0 1 4.765 4.765" style="display:block" transform="translate(845.418 362.44)"/><path fill="#fff" fill-opacity=".05" d="M4.765-9.15v18.3A4.767 4.767 0 0 1 0 13.915 4.767 4.767 0 0 1-4.765 9.15v-18.3A4.767 4.767 0 0 1 0-13.915 4.767 4.767 0 0 1 4.765-9.15" style="display:block" transform="translate(830.089 371.328)"/><path fill="#fff" fill-opacity=".05" d="M4.765-51.735v103.47A4.767 4.767 0 0 1 0 56.5a4.767 4.767 0 0 1-4.765-4.765v-103.47A4.767 4.767 0 0 1 0-56.5a4.767 4.767 0 0 1 4.765 4.765" style="display:block" transform="translate(814.76 328.743)"/><path fill="#fff" fill-opacity=".05" d="M4.765-18.038v36.076A4.767 4.767 0 0 1 0 22.803a4.767 4.767 0 0 1-4.765-4.765v-36.076A4.767 4.767 0 0 1 0-22.803a4.767 4.767 0 0 1 4.765 4.765" style="display:block" transform="translate(799.431 362.44)"/><path fill="#fff" fill-opacity=".05" d="M4.765-12.738v25.476A4.767 4.767 0 0 1 0 17.503a4.767 4.767 0 0 1-4.765-4.765v-25.476A4.767 4.767 0 0 1 0-17.503a4.767 4.767 0 0 1 4.765 4.765" style="display:block" transform="translate(784.103 367.74)"/><path fill="#fff" fill-opacity=".05" d="M4.765-21.094v42.188A4.767 4.767 0 0 1 0 25.859a4.767 4.767 0 0 1-4.765-4.765v-42.188A4.767 4.767 0 0 1 0-25.859a4.767 4.767 0 0 1 4.765 4.765" style="display:block" transform="matrix(1 0 0 .99986 768.774 359.388)"/><path fill="#fff" fill-opacity=".05" d="M4.765-18.038v36.076A4.767 4.767 0 0 1 0 22.803a4.767 4.767 0 0 1-4.765-4.765v-36.076A4.767 4.767 0 0 1 0-22.803a4.767 4.767 0 0 1 4.765 4.765" style="display:block" transform="matrix(1 0 0 .99768 753.445 362.493)"/><path fill="#fff" fill-opacity=".05" d="M4.765-16.373v32.746A4.767 4.767 0 0 1 0 21.138a4.767 4.767 0 0 1-4.765-4.765v-32.746A4.767 4.767 0 0 1 0-21.138a4.767 4.767 0 0 1 4.765 4.765" style="display:block" transform="matrix(1 0 0 .99243 738.116 364.266)"/><path fill="#fff" fill-opacity=".05" d="M4.765-4.985v9.97A4.767 4.767 0 0 1 0 9.75a4.767 4.767 0 0 1-4.765-4.765v-9.97A4.767 4.767 0 0 1 0-9.75a4.767 4.767 0 0 1 4.765 4.765" style="display:block" transform="matrix(1 0 0 .98337 722.787 375.655)"/><path fill="#fff" fill-opacity=".05" d="M4.765-12.738v25.476A4.767 4.767 0 0 1 0 17.503a4.767 4.767 0 0 1-4.765-4.765v-25.476A4.767 4.767 0 0 1 0-17.503a4.767 4.767 0 0 1 4.765 4.765" style="display:block" transform="matrix(1 0 0 .96947 707.459 368.274)"/><path fill="#fff" fill-opacity=".05" d="M4.765-19.427v38.854A4.767 4.767 0 0 1 0 24.192a4.767 4.767 0 0 1-4.765-4.765v-38.854A4.767 4.767 0 0 1 0-24.192a4.767 4.767 0 0 1 4.765 4.765" style="display:block" transform="matrix(1 0 0 .94915 692.13 362.281)"/><path fill="#fff" fill-opacity=".05" d="M4.765-35.827v71.654A4.767 4.767 0 0 1 0 40.592a4.767 4.767 0 0 1-4.765-4.765v-71.654A4.767 4.767 0 0 1 0-40.592a4.767 4.767 0 0 1 4.765 4.765" style="display:block" transform="matrix(1 0 0 .9198 676.801 347.906)"/><path fill="#fff" fill-opacity=".05" d="M4.765-12.738v25.476A4.767 4.767 0 0 1 0 17.503a4.767 4.767 0 0 1-4.765-4.765v-25.476A4.767 4.767 0 0 1 0-17.503a4.767 4.767 0 0 1 4.765 4.765" style="display:block" transform="matrix(1 0 0 .87655 661.472 369.9)"/><g opacity=".5" style="display:block"><path fill="#fff" d="M714.555 257.136q.483-.213.753-.6.269-.387.269-.892a1.85 1.85 0 0 0-.191-.87q-.191-.365-.626-.626-.436-.26-1.174-.461a5.6 5.6 0 0 1-.853-.287q-.304-.14-.426-.313a.76.76 0 0 1-.122-.444q0-.399.3-.648.3-.248.813-.248.366 0 .627.153.26.152.413.421.152.27.196.627l.939-.052a2.5 2.5 0 0 0-.326-1.049 1.9 1.9 0 0 0-.722-.7q-.457-.252-1.1-.252-.653 0-1.118.226t-.713.631a1.74 1.74 0 0 0-.248.935q0 .479.182.8.183.322.583.539a5 5 0 0 0 1.035.392q.653.183.992.356.34.175.47.383a.9.9 0 0 1 .13.487.76.76 0 0 1-.139.461.86.86 0 0 1-.4.292q-.261.1-.644.1-.392 0-.687-.152a1.2 1.2 0 0 1-.479-.457 2 2 0 0 1-.243-.748l-.94.061q.053.643.348 1.126.296.483.796.753.501.269 1.17.269.653 0 1.135-.213M708.14 257.21v-5.315h1.81v-.861h-4.524v.861h1.81v5.315zM700.825 257.21v-3.01l-.409.331h3.236l-.409-.331v3.01h.913v-6.176h-.913v2.975l.409-.331h-3.236l.409.331v-2.975h-.913v6.176zM697.198 257.145q.339-.204.552-.561a2.6 2.6 0 0 0 .309-.801l-.235.009.043 1.418h.74v-3.149h-2.201v.792h1.357a2.4 2.4 0 0 1-.178.857 1.36 1.36 0 0 1-.448.574 1.16 1.16 0 0 1-.687.204q-.453 0-.77-.274-.318-.274-.483-.8-.165-.527-.165-1.283 0-.766.161-1.296.16-.53.469-.805.309-.274.744-.274.496 0 .805.339.308.34.439.905l.948-.061a3.2 3.2 0 0 0-.43-1.079 2.16 2.16 0 0 0-.744-.713 2.04 2.04 0 0 0-1.027-.252q-.721 0-1.239.396t-.796 1.117q-.278.723-.278 1.723 0 1.052.295 1.77.296.717.809 1.083.513.365 1.183.365.488 0 .827-.204M692.657 257.21v-.861h-1.479v-4.454h1.479v-.861h-3.862v.861h1.479v4.454h-1.479v.861zM686.285 257.136q.483-.213.753-.6t.27-.892a1.85 1.85 0 0 0-.192-.87q-.19-.365-.626-.626-.436-.26-1.174-.461a5.6 5.6 0 0 1-.853-.287q-.304-.14-.426-.313a.76.76 0 0 1-.122-.444q0-.399.3-.648.3-.248.814-.248.365 0 .626.153.26.152.413.421.152.27.196.627l.939-.052a2.5 2.5 0 0 0-.326-1.049 1.9 1.9 0 0 0-.722-.7q-.456-.252-1.1-.252-.653 0-1.118.226t-.713.631a1.74 1.74 0 0 0-.248.935q0 .479.182.8.183.322.583.539a5 5 0 0 0 1.035.392q.653.183.992.356.34.175.47.383a.9.9 0 0 1 .13.487.76.76 0 0 1-.139.461.86.86 0 0 1-.4.292q-.261.1-.644.1-.392 0-.687-.152a1.2 1.2 0 0 1-.478-.457 1.95 1.95 0 0 1-.244-.748l-.939.061q.051.643.347 1.126.297.483.796.753.501.269 1.17.269.653 0 1.135-.213M678.296 257.21v-4.88l2.027 4.88h1.113v-6.176h-.896v4.88l-2.027-4.88H677.4v6.176zM675.695 257.21v-.861h-1.479v-4.454h1.479v-.861h-3.862v.861h1.479v4.454h-1.479v.861z" opacity="1"/></g><g style="display:block"><path fill="#fff" fill-opacity=".5" d="M659.816 258.61a.422.422 0 0 0 .535-.267l.564-1.692a.423.423 0 0 0-.802-.267l-.564 1.691a.423.423 0 0 0 .267.535M663.214 258.342c.058.178.224.29.401.29a.423.423 0 0 0 .401-.557l-.564-1.692a.423.423 0 0 0-.802.268zM665.499 250.405l1.068.356a.422.422 0 0 1 0 .802l-1.068.356-.356 1.068a.423.423 0 0 1-.802 0l-.356-1.068-1.068-.356a.422.422 0 0 1 0-.802l1.068-.356.356-1.068a.423.423 0 0 1 .802 0z"/><path fill="#fff" fill-opacity=".5" d="M658.822 250.174h3.432a1.27 1.27 0 0 0 .394 2.191l.668.222.223.668a1.268 1.268 0 0 0 2.406-.001l.223-.667.124-.041v2.843c0 .856-.695 1.551-1.55 1.551h-5.92c-.855 0-1.55-.695-1.55-1.551v-3.664c0-.856.695-1.551 1.55-1.551"/></g><g style="display:block"><path fill="#080909" d="M861.745 16.988c8.169 0 14.801 6.632 14.801 14.801v167.684c0 8.169-6.632 14.801-14.801 14.801H661.123c-8.169 0-14.801-6.632-14.801-14.801V31.789c0-8.169 6.632-14.801 14.801-14.801z"/><path fill="none" stroke="#fff" stroke-opacity=".05" stroke-width=".92509" d="M861.745 16.988c8.169 0 14.801 6.632 14.801 14.801v167.684c0 8.169-6.632 14.801-14.801 14.801H661.123c-8.169 0-14.801-6.632-14.801-14.801V31.789c0-8.169 6.632-14.801 14.801-14.801z"/></g><path fill="#fff" fill-opacity=".05" d="M26.78-15.549V15.55c0 4.415-3.585 8-8 8h-37.56c-4.415 0-8-3.585-8-8V-15.55c0-4.415 3.585-8 8-8h37.56c4.415 0 8 3.585 8 8" style="display:block" transform="translate(839.151 74.983)"/><path fill="#17e299" d="M26.78-15.549V15.55c0 4.415-3.585 8-8 8h-37.56c-4.415 0-8-3.585-8-8V-15.55c0-4.415 3.585-8 8-8h37.56c4.415 0 8 3.585 8 8" style="display:block" transform="matrix(0 0 0 0 812.371 98.531)"/><path fill="#fff" fill-opacity=".05" d="M44.71 0c0 2.4-1.949 4.349-4.349 4.349h-80.722A4.35 4.35 0 0 1-44.71 0c0-2.4 1.949-4.349 4.349-4.349h80.722c2.4 0 4.349 1.949 4.349 4.349" style="display:block" transform="translate(701.878 199.308)"/><path fill="#fff" fill-opacity=".05" d="M71.802 0c0 2.4-1.948 4.349-4.349 4.349H-67.453A4.35 4.35 0 0 1-71.803 0c0-2.4 1.95-4.349 4.35-4.349H67.453c2.4 0 4.35 1.949 4.35 4.349" style="display:block" transform="translate(728.971 184.811)"/><path fill="#fff" fill-opacity=".05" d="M21.33 0c0 2.4-1.95 4.349-4.35 4.349h-33.96A4.35 4.35 0 0 1-21.33 0c0-2.4 1.95-4.349 4.35-4.349h33.96c2.4 0 4.35 1.949 4.35 4.349" style="display:block" transform="translate(678.498 170.313)"/><path fill="#fff" fill-opacity=".05" d="M44.71 0c0 2.4-1.949 4.349-4.349 4.349h-80.722A4.35 4.35 0 0 1-44.71 0c0-2.4 1.949-4.349 4.349-4.349h80.722c2.4 0 4.349 1.949 4.349 4.349" style="display:block" transform="translate(701.878 150.017)"/><path fill="#fff" fill-opacity=".05" d="M71.802 0c0 2.4-1.948 4.349-4.349 4.349H-67.453A4.35 4.35 0 0 1-71.803 0c0-2.4 1.95-4.349 4.35-4.349H67.453c2.4 0 4.35 1.949 4.35 4.349" style="display:block" transform="translate(728.971 135.52)"/><path fill="#fff" fill-opacity=".05" d="M21.33 0c0 2.4-1.95 4.349-4.35 4.349h-33.96A4.35 4.35 0 0 1-21.33 0c0-2.4 1.95-4.349 4.35-4.349h33.96c2.4 0 4.35 1.949 4.35 4.349" style="display:block" transform="translate(678.498 121.022)"/><path fill="#fff" fill-opacity=".05" d="M17.704-1.424v2.848c0 4.415-3.585 8-8 8H-9.704c-4.415 0-8-3.585-8-8v-2.848c0-4.415 3.585-8 8-8H9.704c4.415 0 8 3.585 8 8" style="display:block" transform="translate(783.07 95.652)"/><path fill="#fff" fill-opacity=".05" d="M51.199-1.424v2.848c0 4.415-3.585 8-8 8h-86.398c-4.415 0-8-3.585-8-8v-2.848c0-4.415 3.585-8 8-8h86.398c4.415 0 8 3.585 8 8" style="display:block" transform="translate(708.368 95.652)"/><path fill="#fff" fill-opacity=".05" d="M71.802 0c0 2.4-1.948 4.349-4.349 4.349H-67.453A4.35 4.35 0 0 1-71.803 0c0-2.4 1.95-4.349 4.35-4.349H67.453c2.4 0 4.35 1.949 4.35 4.349" style="display:block" transform="translate(728.97 70.281)"/><path fill="#fff" fill-opacity=".05" d="M24.677 0c0 2.4-1.95 4.349-4.35 4.349h-40.654A4.35 4.35 0 0 1-24.677 0c0-2.4 1.95-4.349 4.35-4.349h40.654c2.4 0 4.35 1.949 4.35 4.349" style="display:block" transform="translate(681.845 55.784)"/><g mask="url(#r)" style="display:block"><path fill="#17e299" d="M657.168 199.308v4.349zv-4.349z"/></g><g mask="url(#s)" style="display:block"><path fill="#17e299" d="M657.168 184.811v4.349zv-4.349z"/></g><g mask="url(#t)" style="display:block"><path fill="#17e299" d="M657.168 170.313v4.349zv-4.349z"/></g><g mask="url(#u)" style="display:block"><path fill="#17e299" d="M657.168 150.017v4.349zv-4.349z"/></g><g mask="url(#v)" style="display:block"><path fill="#17e299" d="M657.168 135.52v4.349zv-4.349z"/></g><g mask="url(#w)" style="display:block"><path fill="#17e299" d="M657.168 121.022v4.349zv-4.349z"/></g><g mask="url(#x)" style="display:block"><path fill="#17e299" d="M765.366 94.229v10.847-18.847z"/></g><g mask="url(#y)" style="display:block"><path fill="#17e299" d="M657.168 94.229v10.847-18.847z"/></g><g mask="url(#z)" style="display:block"><path fill="#17e299" d="M657.168 70.281v4.349zv-4.349z"/></g><g mask="url(#A)" style="display:block"><path fill="#17e299" d="M657.168 55.784v4.349zv-4.349z"/></g><g opacity=".5" style="display:block"><path fill="#fff" d="M744.799 36.401v-.861h-2.949v-1.818h2.775v-.835h-2.775v-1.801h2.88v-.861h-3.793v6.176zM738.632 35.949q.582-.592.739-1.653l-.948-.044q-.113.705-.452 1.07a1.08 1.08 0 0 1-.818.366 1.08 1.08 0 0 1-.757-.279q-.304-.278-.461-.804-.156-.527-.156-1.283 0-.766.156-1.296.157-.531.461-.809a1.08 1.08 0 0 1 .757-.279q.444 0 .77.335.326.336.457.979l.956-.052q-.182-1-.761-1.557-.577-.557-1.422-.557-.748 0-1.265.396-.518.396-.788 1.117-.269.723-.269 1.723 0 .992.269 1.713.27.723.788 1.114.517.391 1.265.391.896 0 1.479-.591M730.351 36.401v-4.88l2.027 4.88h1.113v-6.176h-.896v4.88l-2.027-4.88h-1.113v6.176zM727.837 36.401v-.861h-2.949v-1.818h2.775v-.835h-2.775v-1.801h2.88v-.861h-3.793v6.176zM719.052 31.086h.991q.575 0 .879.266.304.265.304.761 0 .487-.304.756-.304.27-.879.27h-.991zm0 5.315v-2.409h1.078q.383 0 .601.078a.58.58 0 0 1 .321.261q.105.183.131.487l.139 1.583h.913l-.156-1.757q-.052-.591-.37-.857t-.961-.291l.035.104q.356-.026.674-.217.317-.192.513-.531t.196-.783q0-.853-.561-1.348t-1.544-.496h-1.923v6.176zM716.529 36.401v-.861h-2.949v-1.818h2.775v-.835h-2.775v-1.801h2.88v-.861h-3.793v6.176zM708.013 36.401v-3.044l-.521.443h3.314v-.835h-3.314l.521.444v-2.836l-.521.496h3.47v-.844H707.1v6.176zM705.221 36.401v-.861h-2.949v-1.818h2.775v-.835h-2.775v-1.801h2.88v-.861h-3.793v6.176zM696.436 31.086h.991q.575 0 .879.266.304.265.304.761 0 .487-.304.756-.304.27-.879.27h-.991zm0 5.315v-2.409h1.078q.384 0 .601.078a.58.58 0 0 1 .321.261q.105.183.131.487l.139 1.583h.913l-.156-1.757q-.052-.591-.37-.857t-.961-.291l.035.104q.356-.026.674-.217.318-.192.513-.531.196-.339.196-.783 0-.853-.561-1.348t-1.544-.496h-1.922v6.176zM688.172 36.401v-.861h-1.478v-4.454h1.478v-.861h-3.862v.861h1.479v4.454h-1.479v.861zM679.639 31.086h.905q.66 0 .974.27t.313.791q0 .514-.313.783-.314.27-.974.27h-.905zm0 5.315v-2.34h1q.644 0 1.127-.23t.748-.661.265-1.023q0-.591-.265-1.022a1.76 1.76 0 0 0-.748-.665q-.482-.235-1.127-.235h-1.913v6.176zM676.325 34.792l-.278-.844h-2.227l-.278.844zm-2.844 1.609 1.452-5.228 1.453 5.228h.948l-1.809-6.176h-1.183l-1.809 6.176z" opacity="1"/></g><path fill="#fff" fill-opacity=".5" d="M2.238.555 2.52.33a.426.426 0 0 0 0-.66l-.282-.225a.7.7 0 0 1-.265-.551v-.444a.99.99 0 0 0-.986-.987.423.423 0 1 0 0 .846c.077 0 .141.063.141.141v.444c0 .42.167.816.463 1.106-.296.29-.463.685-.463 1.106v.444a.14.14 0 0 1-.141.141.423.423 0 0 0 0 .846.99.99 0 0 0 .986-.987v-.444c0-.216.097-.416.265-.551m-3.366.995v-.444c0-.42-.167-.816-.463-1.106.296-.29.463-.685.463-1.106v-.444c0-.078.064-.141.141-.141a.423.423 0 0 0 0-.846.99.99 0 0 0-.986.987v.444a.7.7 0 0 1-.265.551l-.282.225a.426.426 0 0 0 0 .66l.282.225a.7.7 0 0 1 .265.551v.444c0 .544.442.987.986.987a.423.423 0 1 0 0-.846.14.14 0 0 1-.141-.141m-1.268-5.497h4.792c.855 0 1.551.696 1.551 1.551v4.792c0 .855-.696 1.551-1.551 1.551h-4.792a1.553 1.553 0 0 1-1.551-1.551v-4.792c0-.855.696-1.551 1.551-1.551" style="display:block" transform="translate(662.242 33.313)"/><g style="display:block"><path fill="#080909" d="M337.895 247.282c8.168 0 14.801 6.632 14.801 14.8v105.704c0 8.168-6.633 14.801-14.801 14.801H140.973c-8.168 0-14.801-6.633-14.801-14.801V262.083c0-8.169 6.633-14.801 14.801-14.801z"/><path fill="none" stroke="#fff" stroke-opacity=".05" stroke-width=".92509" d="M337.895 247.282c8.168 0 14.801 6.632 14.801 14.8v105.704c0 8.168-6.633 14.801-14.801 14.801H140.973c-8.168 0-14.801-6.633-14.801-14.801V262.083c0-8.169 6.633-14.801 14.801-14.801z"/></g><path fill="#fff" fill-opacity=".05" d="M10.741 0c0 2.4-1.948 4.349-4.349 4.349H-6.392A4.35 4.35 0 0 1-10.742 0c0-2.4 1.95-4.349 4.35-4.349H6.392c2.4 0 4.35 1.949 4.35 4.349" style="display:block" transform="translate(148.809 367.842)"/><path fill="#fff" fill-opacity=".05" d="M79.24 0c0 2.4-1.95 4.349-4.35 4.349H-74.89A4.35 4.35 0 0 1-79.24 0c0-2.4 1.95-4.349 4.35-4.349H74.89c2.4 0 4.35 1.949 4.35 4.349" style="display:block" transform="translate(217.306 347.546)"/><path fill="#fff" fill-opacity=".05" d="M101.481 0c0 2.4-1.948 4.349-4.349 4.349H-97.132A4.35 4.35 0 0 1-101.482 0c0-2.4 1.95-4.349 4.35-4.349H97.132c2.4 0 4.35 1.949 4.35 4.349" style="display:block" transform="translate(239.549 333.048)"/><path fill="#fff" fill-opacity=".05" d="M51.549-9.503V9.503c0 4.415-3.585 8-8 8h-87.098c-4.415 0-8-3.585-8-8V-9.503c0-4.415 3.585-8 8-8h87.098c4.415 0 8 3.585 8 8" style="display:block" transform="translate(189.616 299.598)"/><g opacity=".5" style="display:block"><path fill="#fff" d="M190.675 266.987a1.76 1.76 0 0 0 .752-.6q.27-.387.27-.892a1.85 1.85 0 0 0-.192-.87q-.19-.365-.626-.626-.435-.26-1.174-.461a5.6 5.6 0 0 1-.853-.287q-.305-.14-.426-.313a.76.76 0 0 1-.122-.444q0-.399.3-.648.3-.248.814-.248.365 0 .626.153.261.152.413.421.152.27.196.627l.939-.052a2.5 2.5 0 0 0-.326-1.049 1.9 1.9 0 0 0-.722-.7q-.456-.252-1.1-.252-.653 0-1.118.226t-.713.631a1.74 1.74 0 0 0-.248.935q0 .479.182.8.183.322.583.539a5 5 0 0 0 1.035.392q.653.183.992.356.34.175.47.383a.9.9 0 0 1 .13.487.76.76 0 0 1-.139.461.86.86 0 0 1-.4.292q-.261.1-.644.1-.392 0-.687-.152a1.2 1.2 0 0 1-.478-.457 2 2 0 0 1-.244-.748l-.939.061q.051.643.348 1.126.296.483.795.753.501.269 1.17.269.653 0 1.136-.213M185.825 267.061v-.861h-2.949v-1.818h2.775v-.835h-2.775v-1.801h2.88v-.861h-3.793v6.176zM178.605 267.061v-5.315h1.81v-.861h-4.523v.861h1.809v5.315zM173.891 265.452l-.278-.844h-2.227l-.279.844zm-2.844 1.609 1.452-5.228 1.453 5.228h.948l-1.809-6.176h-1.183l-1.81 6.176zM165.871 261.746h.565q.844 0 1.301.561.456.562.456 1.675t-.456 1.666q-.457.552-1.301.552h-.565zm.591 5.315q.818 0 1.423-.357a2.33 2.33 0 0 0 .93-1.043q.327-.687.327-1.679 0-.991-.327-1.683a2.36 2.36 0 0 0-.93-1.053q-.605-.36-1.423-.361h-1.504v6.176zM160.243 261.746h.905q.66 0 .974.27t.313.791q0 .514-.313.783-.314.27-.974.27h-.905zm0 5.315v-2.34h1a2.6 2.6 0 0 0 1.127-.23q.483-.23.748-.661t.265-1.023q0-.591-.265-1.022a1.76 1.76 0 0 0-.748-.665q-.483-.235-1.127-.235h-1.913v6.176zM157.086 266.591q.556-.609.556-1.679v-4.027h-.913v4.062q0 .679-.305 1.04-.304.36-.887.361-.582 0-.887-.361-.304-.361-.304-1.04v-4.062h-.914v4.027q0 1.07.557 1.679t1.548.609 1.549-.609" opacity="1"/></g><path fill="#fff" fill-opacity=".5" d="M-1.832.564h3.664a.423.423 0 0 0 0-.846h-3.664a.423.423 0 1 0 0 .846m0 1.691H.141a.423.423 0 0 0 0-.846h-1.973a.423.423 0 0 0 0 .846m.704-3.946a.563.563 0 1 0-1.126-.002.563.563 0 0 0 1.126.002m-1.268-2.256h4.792c.855 0 1.551.696 1.551 1.551v4.792c0 .855-.696 1.551-1.551 1.551h-4.792a1.553 1.553 0 0 1-1.551-1.551v-4.792c0-.855.696-1.551 1.551-1.551" style="display:block" transform="translate(143.141 263.973)"/><g style="display:block"><path fill="#080909" d="M337.895 156.972c8.168 0 14.801 6.633 14.801 14.802v36.32c0 8.17-6.633 14.802-14.801 14.802H140.973c-8.168 0-14.801-6.632-14.801-14.801v-36.321c0-8.17 6.633-14.802 14.801-14.802z"/><path fill="none" stroke="#fff" stroke-opacity=".05" stroke-width=".92509" d="M337.895 156.972c8.168 0 14.801 6.633 14.801 14.802v36.32c0 8.17-6.633 14.802-14.801 14.802H140.973c-8.168 0-14.801-6.632-14.801-14.801v-36.321c0-8.17 6.633-14.802 14.801-14.802z"/></g><g opacity=".05" style="display:block"><path fill="#f6f6f6" d="M296.546 208.059c0 2.4-1.95 4.349-4.35 4.349h-149.78a4.35 4.35 0 0 1-4.35-4.349c0-2.4 1.95-4.349 4.35-4.349h149.78c2.4 0 4.35 1.949 4.35 4.349" opacity="1"/></g><g opacity=".05" style="display:block"><path fill="#f6f6f6" d="M341.03 193.562c0 2.4-1.948 4.349-4.348 4.349H142.417a4.35 4.35 0 0 1-4.35-4.349c0-2.4 1.95-4.349 4.35-4.349h194.265c2.4 0 4.349 1.949 4.349 4.349" opacity="1"/></g><g opacity=".5" style="display:block"><path fill="#fff" d="M205.455 172.489h.991q.575 0 .879.266.304.265.304.761 0 .487-.304.756-.305.27-.879.27h-.991zm0 5.315v-2.409h1.078q.382 0 .6.078a.58.58 0 0 1 .322.261q.105.183.131.487l.139 1.583h.913l-.156-1.757q-.052-.591-.37-.857-.318-.265-.961-.291l.035.104q.356-.026.674-.217.317-.192.513-.531.195-.339.196-.783 0-.853-.561-1.348t-1.544-.496h-1.923v6.176zM202.932 177.804v-.861h-2.949v-1.818h2.775v-.835h-2.775v-1.801h2.88v-.861h-3.793v6.176zM195.799 177.804l1.836-6.176h-.966l-1.548 5.437h.278l-1.548-5.437h-.966l1.836 6.176zM188.493 172.489h.991q.575 0 .879.266.304.265.304.761 0 .487-.304.756-.305.27-.879.27h-.991zm0 5.315v-2.409h1.078q.383 0 .601.078a.58.58 0 0 1 .321.261q.105.183.131.487l.139 1.583h.913l-.156-1.757q-.052-.591-.37-.857-.318-.265-.961-.291l.035.104q.356-.026.674-.217.317-.192.513-.531t.196-.783q0-.853-.561-1.348t-1.544-.496h-1.923v6.176zM185.97 177.804v-.861h-2.949v-1.818h2.775v-.835h-2.775v-1.801h2.88v-.861h-3.793v6.176zM179.512 177.73a1.76 1.76 0 0 0 .752-.6q.27-.387.27-.892a1.85 1.85 0 0 0-.192-.87q-.19-.365-.626-.626-.435-.26-1.174-.461a5.6 5.6 0 0 1-.853-.287q-.305-.14-.426-.313a.76.76 0 0 1-.122-.444q0-.399.3-.648.3-.248.814-.248.365 0 .626.153.261.152.413.421.153.27.196.627l.939-.052a2.5 2.5 0 0 0-.326-1.049 1.9 1.9 0 0 0-.722-.7q-.456-.252-1.1-.252-.653 0-1.118.226t-.713.631a1.75 1.75 0 0 0-.248.935q0 .479.183.8.182.322.582.539a5 5 0 0 0 1.035.392q.653.183.992.356.34.175.47.383a.9.9 0 0 1 .13.487.76.76 0 0 1-.139.461.86.86 0 0 1-.4.292q-.261.1-.644.1-.392 0-.687-.152a1.2 1.2 0 0 1-.478-.457 2 2 0 0 1-.244-.748l-.939.061q.051.643.348 1.126.295.483.796.753.5.269 1.169.269.653 0 1.136-.213M166.042 172.489h.905q.66 0 .974.27t.313.791q0 .514-.313.783-.314.27-.974.27h-.905zm0 5.315v-2.34h1q.644 0 1.127-.23t.748-.661.265-1.023q0-.591-.265-1.022a1.76 1.76 0 0 0-.748-.665q-.483-.235-1.127-.235h-1.913v6.176zM162.841 177.352q.583-.592.739-1.653l-.948-.044q-.113.705-.452 1.07a1.08 1.08 0 0 1-.818.366q-.452 0-.756-.279-.305-.278-.461-.804-.157-.527-.157-1.283 0-.766.157-1.296.156-.531.461-.809.305-.279.756-.279.444 0 .77.335.327.336.457.979l.957-.052q-.183-1-.761-1.557t-1.423-.557q-.747 0-1.265.396t-.787 1.117q-.27.723-.27 1.723 0 .992.27 1.713.269.723.787 1.114t1.265.391q.897 0 1.479-.591M156.03 177.056l1.061-4.419-.095-.009v5.176h.878v-6.176h-1.217l-1.149 4.689h.348l-1.148-4.689h-1.218v6.176h.879v-5.176l-.096.009 1.061 4.419z" opacity="1"/></g><g opacity=".5" style="display:block"><path fill="none" stroke="#fff" stroke-linecap="round" stroke-width="1.087" d="m145.811 173.583-2.836 2.669a1.417 1.417 0 0 1-1.917 0 1.223 1.223 0 0 1 0-1.805l2.836-2.669" opacity="1"/></g><g opacity=".5" style="display:block"><path fill="none" stroke="#fff" stroke-linecap="round" stroke-width="1.087" d="m144.034 179.039-.712-.671a.41.41 0 0 1 0-.601l3.468-3.264c.53-.499.53-1.307 0-1.805l-.02-.019a1.417 1.417 0 0 0-1.917 0l-2.856 2.688" opacity="1"/></g><g opacity=".5" style="display:block"><path fill="none" stroke="#fff" stroke-linecap="round" stroke-width="1.087" d="m141.954 175.405 2.896-2.726c.53-.498.53-1.306 0-1.804a1.415 1.415 0 0 0-1.917 0l-3.835 3.609" opacity="1"/></g><path fill="#17e299" d="M79.24 0c0 2.4-1.95 4.349-4.35 4.349H-74.89A4.35 4.35 0 0 1-79.24 0c0-2.4 1.95-4.349 4.35-4.349H74.89c2.4 0 4.35 1.949 4.35 4.349" style="display:block" transform="matrix(0 0 0 1 138.067 208.059)"/><path fill="#17e299" d="M101.481 0c0 2.4-1.948 4.349-4.349 4.349H-97.132A4.35 4.35 0 0 1-101.482 0c0-2.4 1.95-4.349 4.35-4.349H97.132c2.4 0 4.35 1.949 4.35 4.349" style="display:block" transform="matrix(0 0 0 1 138.067 193.562)"/><g style="display:block"><path fill="#080909" d="M337.895 17.457c8.168 0 14.801 6.633 14.801 14.802v85.35c0 8.17-6.633 14.802-14.801 14.802H140.973c-8.168 0-14.801-6.633-14.801-14.801V32.259c0-8.169 6.633-14.802 14.801-14.802z"/><path fill="none" stroke="#fff" stroke-opacity=".05" stroke-width=".92509" d="M337.895 17.457c8.168 0 14.801 6.633 14.801 14.802v85.35c0 8.17-6.633 14.802-14.801 14.802H140.973c-8.168 0-14.801-6.633-14.801-14.801V32.259c0-8.169 6.633-14.802 14.801-14.802z"/></g><path fill="none" stroke="#17e299" d="M106.434-62.131c8.83 0 16 7.17 16 16v92.262c0 8.83-7.17 16-16 16h-212.868c-8.83 0-16-7.17-16-16v-92.262c0-8.83 7.17-16 16-16z" style="display:block" transform="translate(239.434 74.934)scale(.92509)"/><path fill="#fff" fill-opacity=".05" d="M31.894-9.503V9.503c0 4.415-3.585 8-8 8h-47.788c-4.415 0-8-3.585-8-8V-9.503c0-4.415 3.585-8 8-8h47.788c4.415 0 8 3.585 8 8" style="display:block" transform="translate(309.136 104.646)"/><path fill="#fff" fill-opacity=".05" d="M31.894-9.503V9.503c0 4.415-3.585 8-8 8h-47.788c-4.415 0-8-3.585-8-8V-9.503c0-4.415 3.585-8 8-8h47.788c4.415 0 8 3.585 8 8" style="display:block" transform="translate(239.548 104.646)"/><path fill="#fff" fill-opacity=".05" d="M31.894-9.503V9.503c0 4.415-3.585 8-8 8h-47.788c-4.415 0-8-3.585-8-8V-9.503c0-4.415 3.585-8 8-8h47.788c4.415 0 8 3.585 8 8" style="display:block" transform="translate(169.961 104.646)"/><path fill="#fff" fill-opacity=".05" d="M79.24 0c0 2.4-1.95 4.349-4.35 4.349H-74.89A4.35 4.35 0 0 1-79.24 0c0-2.4 1.95-4.349 4.35-4.349H74.89c2.4 0 4.35 1.949 4.35 4.349" style="display:block" transform="translate(217.306 71.195)"/><path fill="#fff" fill-opacity=".05" d="M101.481 0c0 2.4-1.948 4.349-4.349 4.349H-97.132A4.35 4.35 0 0 1-101.482 0c0-2.4 1.95-4.349 4.35-4.349H97.132c2.4 0 4.35 1.949 4.35 4.349" style="display:block" transform="translate(239.549 56.698)"/><path fill="#17e299" d="M31.894-9.503V9.503c0 4.415-3.585 8-8 8h-47.788c-4.415 0-8-3.585-8-8V-9.503c0-4.415 3.585-8 8-8h47.788c4.415 0 8 3.585 8 8" style="display:block" transform="translate(298.132 98.607)scale(.65499)"/><path fill="#17e299" d="M31.894-9.503V9.503c0 4.415-3.585 8-8 8h-47.788c-4.415 0-8-3.585-8-8V-9.503c0-4.415 3.585-8 8-8h47.788c4.415 0 8 3.585 8 8" style="display:block" transform="translate(234.788 102.034)scale(.85075)"/><path fill="#17e299" d="M31.894-9.503V9.503c0 4.415-3.585 8-8 8h-47.788c-4.415 0-8-3.585-8-8V-9.503c0-4.415 3.585-8 8-8h47.788c4.415 0 8 3.585 8 8" style="display:block" transform="translate(167.647 103.376)scale(.92744)"/><g mask="url(#B)" style="display:block"><path fill="#17e299" d="M291.417 71.195c0 2.4-1.885 4.349-4.208 4.349H142.275c-2.323 0-4.208-1.949-4.208-4.349s1.885-4.349 4.208-4.349h144.934c2.323 0 4.208 1.949 4.208 4.349"/></g><g mask="url(#C)" style="display:block"><path fill="#17e299" d="M338.79 56.698c0 2.4-1.928 4.349-4.301 4.349h-192.12c-2.374 0-4.301-1.949-4.301-4.349s1.927-4.349 4.3-4.349h192.12c2.374 0 4.302 1.949 4.302 4.349"/></g><g opacity=".5" style="display:block"><path fill="#fff" d="M247.953 37.084v-.861h-2.949v-1.818h2.775v-.835h-2.775v-1.801h2.879v-.861h-3.792v6.176zM239.307 31.769h.565q.843 0 1.301.561.456.562.456 1.675t-.456 1.666q-.458.552-1.301.552h-.565zm.591 5.315q.817 0 1.422-.357.605-.356.931-1.043t.326-1.679-.326-1.683a2.36 2.36 0 0 0-.931-1.053q-.605-.36-1.422-.361h-1.505v6.176zM236.558 37.084v-.861h-1.479v-4.454h1.479v-.861h-3.862v.861h1.479v4.454h-1.479v.861zM230.521 36.614q.557-.608.557-1.679v-4.027h-.913v4.062q0 .679-.305 1.04-.305.36-.887.361-.583 0-.887-.361t-.305-1.04v-4.062h-.913v4.027q0 1.07.557 1.679t1.548.609 1.548-.609M224.137 37.019q.339-.204.552-.561a2.6 2.6 0 0 0 .309-.801l-.235.009.043 1.418h.74v-3.149h-2.201v.792h1.357a2.4 2.4 0 0 1-.178.857 1.36 1.36 0 0 1-.448.574 1.16 1.16 0 0 1-.687.204q-.453 0-.77-.274-.318-.274-.483-.8-.165-.527-.165-1.283 0-.766.161-1.296.16-.53.469-.805.309-.274.744-.274.496 0 .805.339.308.34.439.905l.948-.061a3.1 3.1 0 0 0-.431-1.079 2.15 2.15 0 0 0-.743-.713 2.04 2.04 0 0 0-1.027-.252q-.721 0-1.239.396t-.796 1.117q-.278.723-.278 1.723 0 1.051.295 1.77.296.717.809 1.083.514.365 1.183.365.487 0 .827-.204M212.463 37.084v-5.315h1.81v-.861h-4.524v.861h1.81v5.315zM205.244 31.769h.991q.575 0 .879.266.304.265.304.761 0 .487-.304.756-.305.27-.879.27h-.991zm0 5.315v-2.409h1.078q.382 0 .6.078a.58.58 0 0 1 .322.261q.105.183.131.487l.139 1.583h.913l-.156-1.757q-.052-.591-.37-.857t-.961-.291l.035.104q.356-.026.674-.217a1.5 1.5 0 0 0 .513-.531q.195-.339.196-.783 0-.852-.561-1.348t-1.544-.496h-1.923v6.176zM202.095 35.475l-.279-.844h-2.226l-.279.844zm-2.845 1.609 1.453-5.228 1.453 5.228h.948l-1.809-6.176h-1.183l-1.81 6.176zM195.501 37.084v-5.315h1.81v-.861h-4.524v.861h1.81v5.315zM190.609 37.01a1.76 1.76 0 0 0 .752-.6q.27-.387.27-.892a1.85 1.85 0 0 0-.192-.87q-.19-.365-.626-.626-.435-.26-1.174-.461a5.6 5.6 0 0 1-.853-.287q-.305-.14-.426-.313a.76.76 0 0 1-.122-.444q0-.399.3-.648.3-.248.814-.248.365 0 .626.153.261.152.413.421.152.27.196.627l.939-.052a2.5 2.5 0 0 0-.326-1.049 1.9 1.9 0 0 0-.722-.7q-.456-.252-1.1-.252-.653 0-1.118.226t-.713.631a1.74 1.74 0 0 0-.248.935q0 .479.182.8.183.322.583.539a5 5 0 0 0 1.035.392q.653.183.992.356.34.175.47.383a.9.9 0 0 1 .13.487.76.76 0 0 1-.139.461.86.86 0 0 1-.4.292q-.261.1-.644.1-.392 0-.687-.152a1.2 1.2 0 0 1-.478-.457 2 2 0 0 1-.244-.748l-.939.061q.051.643.348 1.126.296.483.795.753.501.269 1.17.269.653 0 1.136-.213M180.366 37.084l-2.409-3.671-.627.627 1.966 3.044zm-3.488 0v-6.176h-.913v6.176zm3.419-6.176h-1.105l-2.401 3.018v1.297zM173.938 36.632q.582-.592.739-1.653l-.948-.044q-.113.705-.452 1.07a1.08 1.08 0 0 1-.818.366 1.08 1.08 0 0 1-.757-.279q-.304-.278-.461-.804-.156-.527-.156-1.283 0-.766.156-1.296.157-.531.461-.809a1.08 1.08 0 0 1 .757-.279q.444 0 .77.335.327.336.457.979l.957-.052q-.183-1-.762-1.557-.577-.557-1.422-.557-.748 0-1.265.396-.518.396-.788 1.117-.269.723-.269 1.723 0 .992.269 1.713.27.723.788 1.114.517.391 1.265.391.895 0 1.479-.591M168.71 37.084v-.861h-1.479v-4.454h1.479v-.861h-3.862v.861h1.479v4.454h-1.479v.861zM162.674 36.614q.556-.608.556-1.679v-4.027h-.913v4.062q0 .679-.305 1.04-.304.36-.887.361-.582 0-.887-.361-.304-.361-.304-1.04v-4.062h-.914v4.027q0 1.07.557 1.679t1.548.609 1.549-.609M154.736 36.11q-.3-.261-.456-.792-.157-.53-.157-1.313t.157-1.318q.156-.535.456-.8.3-.266.735-.266t.735.266.457.8q.156.535.156 1.318t-.156 1.313-.457.792a1.08 1.08 0 0 1-.735.261 1.08 1.08 0 0 1-.735-.261m1.988.739q.513-.373.778-1.096.266-.722.266-1.748 0-1.044-.266-1.766-.265-.722-.778-1.096t-1.253-.374-1.248.374-.779 1.096q-.269.722-.269 1.766 0 1.026.269 1.748.27.723.779 1.096.508.374 1.248.374t1.253-.374m.617.835-1.548-2.461h-.844l1.549 2.461z" opacity="1"/></g><path fill="#fff" fill-opacity=".5" d="M2.044-3.834c.877 0 1.563.297 1.985.545a.99.99 0 0 1 .481.849v5.121a.99.99 0 0 1-.433.819.97.97 0 0 1-.902.102 3.1 3.1 0 0 0-1.127-.216h-.004c-.684 0-1.222.229-1.554.42-.021.012-.045.017-.067.028v-5.451a.423.423 0 0 0-.846 0v5.451c-.022-.011-.046-.016-.067-.028a3.1 3.1 0 0 0-1.554-.42h-.005a3.1 3.1 0 0 0-1.126.216.97.97 0 0 1-.903-.102.99.99 0 0 1-.432-.817v-5.126c0-.351.18-.668.482-.846a3.9 3.9 0 0 1 1.984-.545h.001c.903 0 1.607.314 2.043.581a3.9 3.9 0 0 1 2.043-.581z" style="display:block" transform="translate(143.141 34.122)"/><g style="display:block"><path fill="#17e299" d="M247.953 37.084v-.861h-2.949v-1.818h2.775v-.835h-2.775v-1.801h2.879v-.861h-3.792v6.176zM239.307 31.769h.565q.843 0 1.301.561.456.562.456 1.675t-.456 1.666q-.458.552-1.301.552h-.565zm.591 5.315q.817 0 1.422-.357.605-.356.931-1.043t.326-1.679-.326-1.683a2.36 2.36 0 0 0-.931-1.053q-.605-.36-1.422-.361h-1.505v6.176zM236.558 37.084v-.861h-1.479v-4.454h1.479v-.861h-3.862v.861h1.479v4.454h-1.479v.861zM230.521 36.614q.557-.608.557-1.679v-4.027h-.913v4.062q0 .679-.305 1.04-.305.36-.887.361-.583 0-.887-.361t-.305-1.04v-4.062h-.913v4.027q0 1.07.557 1.679t1.548.609 1.548-.609M224.137 37.019q.339-.204.552-.561a2.6 2.6 0 0 0 .309-.801l-.235.009.043 1.418h.74v-3.149h-2.201v.792h1.357a2.4 2.4 0 0 1-.178.857 1.36 1.36 0 0 1-.448.574 1.16 1.16 0 0 1-.687.204q-.453 0-.77-.274-.318-.274-.483-.8-.165-.527-.165-1.283 0-.766.161-1.296.16-.53.469-.805.309-.274.744-.274.496 0 .805.339.308.34.439.905l.948-.061a3.1 3.1 0 0 0-.431-1.079 2.15 2.15 0 0 0-.743-.713 2.04 2.04 0 0 0-1.027-.252q-.721 0-1.239.396t-.796 1.117q-.278.723-.278 1.723 0 1.051.295 1.77.296.717.809 1.083.514.365 1.183.365.487 0 .827-.204M212.463 37.084v-5.315h1.81v-.861h-4.524v.861h1.81v5.315zM205.244 31.769h.991q.575 0 .879.266.304.265.304.761 0 .487-.304.756-.305.27-.879.27h-.991zm0 5.315v-2.409h1.078q.382 0 .6.078a.58.58 0 0 1 .322.261q.105.183.131.487l.139 1.583h.913l-.156-1.757q-.052-.591-.37-.857t-.961-.291l.035.104q.356-.026.674-.217a1.5 1.5 0 0 0 .513-.531q.195-.339.196-.783 0-.852-.561-1.348t-1.544-.496h-1.923v6.176zM202.095 35.475l-.279-.844h-2.226l-.279.844zm-2.845 1.609 1.453-5.228 1.453 5.228h.948l-1.809-6.176h-1.183l-1.81 6.176zM195.501 37.084v-5.315h1.81v-.861h-4.524v.861h1.81v5.315zM190.609 37.01a1.76 1.76 0 0 0 .752-.6q.27-.387.27-.892a1.85 1.85 0 0 0-.192-.87q-.19-.365-.626-.626-.435-.26-1.174-.461a5.6 5.6 0 0 1-.853-.287q-.305-.14-.426-.313a.76.76 0 0 1-.122-.444q0-.399.3-.648.3-.248.814-.248.365 0 .626.153.261.152.413.421.152.27.196.627l.939-.052a2.5 2.5 0 0 0-.326-1.049 1.9 1.9 0 0 0-.722-.7q-.456-.252-1.1-.252-.653 0-1.118.226t-.713.631a1.74 1.74 0 0 0-.248.935q0 .479.182.8.183.322.583.539a5 5 0 0 0 1.035.392q.653.183.992.356.34.175.47.383a.9.9 0 0 1 .13.487.76.76 0 0 1-.139.461.86.86 0 0 1-.4.292q-.261.1-.644.1-.392 0-.687-.152a1.2 1.2 0 0 1-.478-.457 2 2 0 0 1-.244-.748l-.939.061q.051.643.348 1.126.296.483.795.753.501.269 1.17.269.653 0 1.136-.213M180.366 37.084l-2.409-3.671-.627.627 1.966 3.044zm-3.488 0v-6.176h-.913v6.176zm3.419-6.176h-1.105l-2.401 3.018v1.297zM173.938 36.632q.582-.592.739-1.653l-.948-.044q-.113.705-.452 1.07a1.08 1.08 0 0 1-.818.366 1.08 1.08 0 0 1-.757-.279q-.304-.278-.461-.804-.156-.527-.156-1.283 0-.766.156-1.296.157-.531.461-.809a1.08 1.08 0 0 1 .757-.279q.444 0 .77.335.327.336.457.979l.957-.052q-.183-1-.762-1.557-.577-.557-1.422-.557-.748 0-1.265.396-.518.396-.788 1.117-.269.723-.269 1.723 0 .992.269 1.713.27.723.788 1.114.517.391 1.265.391.895 0 1.479-.591M168.71 37.084v-.861h-1.479v-4.454h1.479v-.861h-3.862v.861h1.479v4.454h-1.479v.861zM162.674 36.614q.556-.608.556-1.679v-4.027h-.913v4.062q0 .679-.305 1.04-.304.36-.887.361-.582 0-.887-.361-.304-.361-.304-1.04v-4.062h-.914v4.027q0 1.07.557 1.679t1.548.609 1.549-.609M154.736 36.11q-.3-.261-.456-.792-.157-.53-.157-1.313t.157-1.318q.156-.535.456-.8.3-.266.735-.266t.735.266.457.8q.156.535.156 1.318t-.156 1.313-.457.792a1.08 1.08 0 0 1-.735.261 1.08 1.08 0 0 1-.735-.261m1.988.739q.513-.373.778-1.096.266-.722.266-1.748 0-1.044-.266-1.766-.265-.722-.778-1.096t-1.253-.374-1.248.374-.779 1.096q-.269.722-.269 1.766 0 1.026.269 1.748.27.723.779 1.096.508.374 1.248.374t1.253-.374m.617.835-1.548-2.461h-.844l1.549 2.461z"/></g><path fill="#17e299" fill-opacity=".5" d="M2.044-3.834c.877 0 1.563.297 1.985.545a.99.99 0 0 1 .481.849v5.121a.99.99 0 0 1-.433.819.97.97 0 0 1-.902.102 3.1 3.1 0 0 0-1.127-.216h-.004c-.684 0-1.222.229-1.554.42-.021.012-.045.017-.067.028v-5.451a.423.423 0 0 0-.846 0v5.451c-.022-.011-.046-.016-.067-.028a3.1 3.1 0 0 0-1.554-.42h-.005a3.1 3.1 0 0 0-1.126.216.97.97 0 0 1-.903-.102.99.99 0 0 1-.432-.817v-5.126c0-.351.18-.668.482-.846a3.9 3.9 0 0 1 1.984-.545h.001c.903 0 1.607.314 2.043.581a3.9 3.9 0 0 1 2.043-.581z" style="display:block" transform="translate(143.141 34.122)"/><g filter="url(#D)" opacity=".5" style="display:block" transform="matrix(1.00442 0 0 1.00221 502 215)"><path fill="#030304" d="M500.858-217.714s-60.115 63.875-37.622 130.492c40.22 119.125-14.003 177.932-14.377 214.776-.154 15.186-50.512 45.873-136.932 50.286-84.866 4.333-160.646-32.433-321.587-25.658s-107.319 37.541-165.384 39.631c-155.658 5.602-277.13-20.938-274.282-69.405-27.975-21.554-61.936-102.855-21.564-244.773 15.47-54.38-32.47-92.356-32.47-92.356v425.828H500.668z" opacity="1"/></g><g filter="url(#E)" opacity=".8" style="display:block" transform="translate(502 217.788)"><path fill="#030304" d="M129.465 115.394s-119.209 80.337-268.653 7.775c-1.728 29.37 3.455 89.839 3.455 89.839l271.245 5.183z" opacity="1"/></g><g opacity=".5" style="display:block"><path fill="#fff" fill-opacity=".03" d="M545.355 420.974c0 2.4-1.95 4.349-4.35 4.349H393.058a4.35 4.35 0 0 1-4.35-4.349c0-2.4 1.95-4.349 4.35-4.349h147.949c2.4 0 4.349 1.949 4.349 4.349" opacity="1"/></g><g opacity=".5" style="display:block"><path fill="#fff" fill-opacity=".03" d="M431.366 406.476c0 2.4-1.948 4.349-4.349 4.349h-33.96a4.35 4.35 0 0 1-4.35-4.349c0-2.4 1.95-4.349 4.35-4.349h33.96c2.4 0 4.35 1.949 4.35 4.349" opacity="1"/></g><g opacity=".5" style="display:block"><path fill="#fff" fill-opacity=".03" d="M478.128 386.18c0 2.4-1.949 4.349-4.349 4.349h-80.722a4.35 4.35 0 0 1-4.349-4.349c0-2.4 1.949-4.349 4.349-4.349h80.722c2.4 0 4.349 1.949 4.349 4.349" opacity="1"/></g><g opacity=".5" style="display:block"><path fill="#fff" fill-opacity=".03" d="M545.355 371.683c0 2.4-1.95 4.349-4.35 4.349H393.058a4.35 4.35 0 0 1-4.35-4.349c0-2.4 1.95-4.349 4.35-4.349h147.949c2.4 0 4.349 1.949 4.349 4.349" opacity="1"/></g><g opacity=".5" style="display:block"><path fill="#fff" fill-opacity=".03" d="M431.366 357.185c0 2.4-1.948 4.349-4.349 4.349h-33.96a4.35 4.35 0 0 1-4.35-4.349c0-2.4 1.95-4.349 4.35-4.349h33.96c2.4 0 4.35 1.949 4.35 4.349" opacity="1"/></g><g opacity=".25" style="display:block"><path fill="#fff" fill-opacity=".03" d="M545.355 330.392v2.847c0 4.415-3.585 8-8 8h-19.408c-4.415 0-8-3.585-8-8v-2.847c0-4.416 3.585-8 8-8h19.408c4.415 0 8 3.584 8 8" opacity="1"/></g><g opacity=".25" style="display:block"><path fill="#fff" fill-opacity=".03" d="M504.148 330.392v2.847c0 4.415-3.585 8-8 8h-99.44c-4.415 0-8-3.585-8-8v-2.847c0-4.416 3.585-8 8-8h99.44c4.415 0 8 3.584 8 8" opacity="1"/></g><g opacity=".25" style="display:block"><path fill="#fff" fill-opacity=".03" d="M545.355 306.444c0 2.4-1.95 4.349-4.35 4.349H393.058a4.35 4.35 0 0 1-4.35-4.349c0-2.4 1.95-4.349 4.35-4.349h147.949c2.4 0 4.349 1.949 4.349 4.349" opacity="1"/></g><g opacity=".25" style="display:block"><path fill="#fff" fill-opacity=".03" d="M438.06 291.947c0 2.4-1.948 4.349-4.348 4.349h-40.655a4.35 4.35 0 0 1-4.35-4.349c0-2.4 1.95-4.349 4.35-4.349h40.655c2.4 0 4.349 1.949 4.349 4.349" opacity="1"/></g></g></svg>